<svg height='300px' width='300px'  fill="#000000" xmlns="http://www.w3.org/2000/svg" version="1.1" x="0px" y="0px" viewBox="0 0 100 100"><g transform="translate(0,-952.36218)"><path style="text-indent:0;text-transform:none;direction:ltr;block-progression:tb;baseline-shift:baseline;color:#000000;enable-background:accumulate;" d="m 63.190479,974.36083 c -0.1323,0 -0.2648,0.001 -0.3975,0.003 -16.9751,0.22523 -30.5872,14.26199 -30.3737,31.29097 a 2.000005,2.000005 0 0 0 0,0.01 c 0.003,0.1831 0.008,0.3663 0.0144,0.5493 -10.7599,2.9614 -17.5195,5.6888 -21.585,8.3397 -2.0861,1.3602 -3.5131,2.7034 -4.2979,4.2944 -0.7847,1.591 -0.6712,3.5089 0.1557,4.8975 1.6537,2.7771 4.9779,4.0832 8.7415,5.1072 3.7636,1.0239 8.0724,1.5435 11.8691,1.509 7.567,-0.069 16.8247,-2.2383 24.9659,-4.77 7.8039,-2.4267 14.4079,-5.105 17.6403,-6.9362 9.1073,-0.8684 17.651502,-4.1877 23.495002,-10.6028 a 2.000005,2.000005 0 0 0 0.5191,-1.2472 c 0.0323,-0.6476 0.0425,-1.2924 0.0425,-1.9266 a 2.000005,2.000005 0 0 0 0,-0.026 c -0.2224,-16.89648 -13.983702,-30.49784 -30.789102,-30.48934 z m 0.3478,4.00156 c 14.4964,0.17527 26.245102,11.89193 26.441602,26.53311 0,0.3327 -0.004,0.6616 -0.0116,0.9853 -4.556602,4.7007 -11.103602,7.4956 -18.357502,8.5372 0.2985,-3.505 0.2528,-8.7729 -0.6771,-14.80058 -1.0602,-6.8719 -3.2957,-14.6228 -7.756,-21.25471 0.1202,-10e-5 0.2408,-0.002 0.3606,-3e-4 z m -4.9987,0.405 c 4.8529,6.27383 7.3377,14.30753 8.4412,21.46001 0.9417,6.1036 0.8527,11.6458 0.5603,14.5884 -1.0642,0.057 -2.1375,0.081 -3.2171,0.068 -9.9967,-0.1168 -20.3867,-3.2252 -27.8803,-8.4969 -0.0122,-0.2602 -0.0207,-0.5216 -0.025,-0.7831 -0.1681,-13.40238 9.3986,-24.60333 22.1209,-26.83685 z m -24.1606,31.05651 c 7.1689,4.9769 16.3522,8.0391 25.6265,8.8475 -2.6496,1.0214 -5.698,2.0999 -8.9103,3.0988 -7.9291,2.4656 -17.0014,4.5278 -23.8147,4.5896 -3.3935,0.031 -7.445,-0.461 -10.7825,-1.369 -3.3375,-0.9081 -5.8549,-2.4547 -6.355,-3.2944 -0.25,-0.4198 -0.2914,-0.5015 -0.0053,-1.0815 0.2861,-0.5801 1.1555,-1.579 2.8953,-2.7135 3.4797,-2.2688 10.2416,-5.0654 21.2991,-8.0628 a 2.000005,2.000005 0 0 0 0.0469,-0.015 z" fill="#000000" fill-opacity="1" fill-rule="evenodd" stroke="none" marker="none" visibility="visible" display="inline" overflow="visible"></path><path style="text-indent:0;text-transform:none;direction:ltr;block-progression:tb;baseline-shift:baseline;color:#000000;enable-background:accumulate;" d="m 53.475779,984.78522 a 2.000005,2.000005 0 0 0 -0.7178,0.1603 c -5.913,2.4343 -10.0295,8.3112 -9.9384,15.08838 a 2.000005,2.000005 0 1 0 3.9991,-0.054 c -0.069,-5.13 3.0349,-9.5137 7.4618,-11.3362 a 2.000005,2.000005 0 0 0 -0.8047,-3.8588 z" fill="#000000" fill-opacity="1" fill-rule="evenodd" stroke="none" marker="none" visibility="visible" display="inline" overflow="visible"></path></g></svg>