<svg height='300px' width='300px'  fill="#000000" xmlns="http://www.w3.org/2000/svg" xmlns:xlink="http://www.w3.org/1999/xlink" version="1.1" x="0px" y="0px" viewBox="0 0 24 24" style="enable-background:new 0 0 24 24;" xml:space="preserve"><path d="M23.873,15.24l-0.266-1.364c0.174-2.692-0.467-4.707-1.038-5.926c-0.173-0.368-0.541-0.595-0.933-0.579  c-0.416,0.01-0.788,0.269-0.948,0.658C20.51,8.464,20.275,8.871,19.99,9.24c-0.44,0.573-1.154,0.819-1.749,0.595  c-0.39-0.151-0.671-0.366-0.912-0.695c-0.072-0.099-0.141-0.201-0.21-0.304c-0.175-0.261-0.356-0.531-0.599-0.762  c-1.411-1.354-3.659-1.54-5.345-0.438c-0.427,0.278-0.845,0.529-1.255,0.762C9.915,8.401,9.908,8.4,9.901,8.402  C9.88,8.412,9.865,8.429,9.846,8.442c-3.284,1.853-5.867,2.307-5.901,2.313l-1.662,0.3c-1.188,0.213-2.07,1.195-2.173,2.38  c-0.01,0.043-0.012,0.087-0.008,0.13C0.101,13.599,0.1,13.633,0.1,13.667c0,0.718,0.29,1.424,0.796,1.938  c0.253,0.256,0.548,0.457,0.875,0.597c0.254,0.109,0.523,0.158,0.756,0.196l0.466,0.078c0.321,0.055,0.642,0.109,0.965,0.149  c2.442,0.299,5.015,0.45,7.65,0.45c0.077,0,0.154,0,0.231,0c1.139-0.004,2.308-0.036,3.453-0.095h7.146  c0.438,0,0.849-0.194,1.127-0.532C23.845,16.11,23.956,15.67,23.873,15.24z M17.972,10.588c0.908,0.345,2.002-0.01,2.652-0.859  c0.328-0.425,0.599-0.895,0.805-1.395c0.048-0.117,0.148-0.161,0.228-0.163c0.062-0.002,0.141,0.018,0.188,0.119  c0.509,1.086,1.078,2.858,0.98,5.226l-2.375,0.086c-0.979-0.837-2.207-1.31-3.501-1.34l-1.211-2.662l0.709-0.327  c0.003,0.004,0.005,0.007,0.007,0.011c0.075,0.111,0.149,0.222,0.229,0.33C17.016,10.066,17.419,10.374,17.972,10.588z M11.398,11.6  l0.295,0.649H9.99L11.398,11.6z M13.307,13.869l-0.616-1.358c-0.005-0.013-0.011-0.025-0.017-0.038l-0.549-1.209l1.075-0.496  l1.379,3.043l-0.889,0.032C13.561,13.849,13.435,13.862,13.307,13.869z M15.443,13.782l-1.516-3.347l1.086-0.5l1.298,2.853  c0.005,0.014,0.011,0.026,0.018,0.039l0.414,0.909L15.443,13.782z M17.605,13.704l-0.276-0.607c0.63,0.067,1.233,0.252,1.784,0.552  L17.605,13.704z M11.613,8.306c1.342-0.878,3.192-0.737,4.324,0.321l-4.503,2.076c-0.001,0-0.002,0-0.003,0.001  c-0.001,0-0.001,0.001-0.002,0.002l-3.274,1.509c-0.781-0.089-1.565-0.379-2.22-0.832l-0.327-0.225  c0.269-0.082,0.567-0.18,0.893-0.297l0.281,0.651c0.065,0.151,0.213,0.241,0.367,0.241c0.053,0,0.107-0.01,0.159-0.033  c0.203-0.088,0.296-0.323,0.208-0.526l-0.267-0.617c0.307-0.122,0.628-0.257,0.966-0.409l0.293,0.659  c0.066,0.149,0.212,0.238,0.366,0.238c0.054,0,0.109-0.011,0.162-0.034c0.202-0.09,0.293-0.326,0.204-0.528l-0.3-0.677  c0.305-0.149,0.618-0.312,0.939-0.487l0.27,0.611c0.066,0.149,0.212,0.238,0.366,0.238c0.054,0,0.109-0.011,0.162-0.034  c0.202-0.089,0.293-0.326,0.204-0.527l-0.302-0.684C10.917,8.744,11.261,8.535,11.613,8.306z M2.425,11.842l1.657-0.299  c0.03-0.005,0.215-0.038,0.515-0.109l0.882,0.608c0.802,0.555,1.732,0.896,2.731,0.988c0,0,0.001,0,0.001,0c0,0,0,0,0,0  c0,0,0,0,0.001,0c0.163,0.011,0.316,0.021,0.48,0.021h3.364l0.397,0.874c-0.474,0.041-0.944,0.094-1.404,0.164  c-2.869,0.423-5.579,0.312-8.059-0.33l-2.039-0.529C1.122,12.527,1.689,11.974,2.425,11.842z M22.948,15.939  c-0.126,0.153-0.312,0.24-0.51,0.24l-7.167,0.001c-1.152,0.059-2.308,0.09-3.435,0.094c-2.688,0.034-5.3-0.14-7.781-0.444  c-0.31-0.037-0.619-0.091-0.927-0.144l-0.476-0.079c-0.185-0.03-0.396-0.067-0.566-0.141c-0.229-0.099-0.445-0.245-0.622-0.425  c-0.268-0.271-0.451-0.62-0.526-0.991L2.79,14.53c2.583,0.671,5.401,0.789,8.377,0.348c0.829-0.124,1.688-0.203,2.552-0.234  l1.462-0.053c0.003,0,0.006,0.003,0.009,0.003c0.006,0,0.011-0.003,0.017-0.004l5.116-0.184c0.002,0,0.003,0.002,0.005,0.002  c0.004,0,0.008-0.002,0.012-0.003l2.537-0.091l0.21,1.078C23.126,15.587,23.075,15.786,22.948,15.939z"></path></svg>